<svg width="81" height="80" viewBox="0 0 81 80" fill="none" xmlns="http://www.w3.org/2000/svg">
<path opacity="0.3" d="M80.5 40C80.5 62.0914 62.5914 80 40.5 80C18.4086 80 0.5 62.0914 0.5 40C0.5 17.9086 18.4086 0 40.5 0C62.5914 0 80.5 17.9086 80.5 40ZM11.4071 40C11.4071 56.0675 24.4325 69.0929 40.5 69.0929C56.5675 69.0929 69.5929 56.0675 69.5929 40C69.5929 23.9325 56.5675 10.9071 40.5 10.9071C24.4325 10.9071 11.4071 23.9325 11.4071 40Z" fill="#2F2E30"/>
<circle cx="40.5" cy="40" r="29" fill="black"/>
<path fill-rule="evenodd" clip-rule="evenodd" d="M44.9251 40.6185C44.6693 39.8953 44.1956 39.2691 43.5693 38.8262C42.9429 38.3834 42.1946 38.1455 41.4275 38.1455V37.2183H39.5729V38.1455C38.5892 38.1455 37.6458 38.5363 36.9502 39.2319C36.2547 39.9275 35.8639 40.8709 35.8639 41.8546C35.8639 42.8383 36.2547 43.7817 36.9502 44.4773C37.6458 45.1728 38.5892 45.5636 39.5729 45.5636V49.2727C38.7662 49.2727 38.0791 48.758 37.8232 48.0366C37.7852 47.9186 37.724 47.8094 37.6431 47.7154C37.5621 47.6215 37.4632 47.5447 37.3521 47.4897C37.241 47.4347 37.12 47.4025 36.9962 47.395C36.8725 47.3876 36.7485 47.405 36.6316 47.4463C36.5147 47.4876 36.4073 47.5519 36.3156 47.6355C36.224 47.719 36.1501 47.8201 36.0983 47.9327C36.0464 48.0453 36.0176 48.1672 36.0137 48.2911C36.0098 48.415 36.0307 48.5385 36.0753 48.6542C36.3311 49.3774 36.8048 50.0036 37.4312 50.4465C38.0575 50.8894 38.8058 51.1272 39.5729 51.1272V52.0545H41.4275V51.1272C42.4112 51.1272 43.3546 50.7364 44.0502 50.0408C44.7457 49.3453 45.1365 48.4018 45.1365 47.4181C45.1365 46.4344 44.7457 45.491 44.0502 44.7955C43.3546 44.0999 42.4112 43.7091 41.4275 43.7091V40C41.811 40 42.1851 40.1188 42.4983 40.3401C42.8115 40.5615 43.0484 40.8745 43.1763 41.2361C43.2582 41.468 43.4288 41.6579 43.6507 41.7639C43.7606 41.8165 43.8797 41.8468 44.0013 41.8533C44.1229 41.8598 44.2446 41.8423 44.3595 41.8017C44.4743 41.7612 44.58 41.6984 44.6706 41.617C44.7612 41.5356 44.8348 41.4371 44.8873 41.3273C44.9398 41.2174 44.9702 41.0983 44.9767 40.9767C44.9832 40.8551 44.9656 40.7334 44.9251 40.6185V40.6185ZM39.5729 40C39.0811 40 38.6094 40.1954 38.2616 40.5432C37.9138 40.891 37.7184 41.3627 37.7184 41.8546C37.7184 42.3464 37.9138 42.8181 38.2616 43.1659C38.6094 43.5137 39.0811 43.7091 39.5729 43.7091V40ZM41.4275 49.2727C41.9193 49.2727 42.391 49.0773 42.7388 48.7295C43.0866 48.3817 43.282 47.91 43.282 47.4181C43.282 46.9263 43.0866 46.4546 42.7388 46.1068C42.391 45.759 41.9193 45.5636 41.4275 45.5636V49.2727Z" fill="#FAFAFA"/>
<path fill-rule="evenodd" clip-rule="evenodd" d="M30.4422 25.7397C32.7177 24.626 36.4508 23.3093 40.5364 23.3093C44.5366 23.3093 48.1714 24.5713 50.4349 25.6701L50.5628 25.7323C51.2453 26.0698 51.7961 26.3888 52.1837 26.6475L48.7584 31.6547C56.6549 39.7274 62.7545 56.688 40.5364 56.688C18.3182 56.688 24.2536 40.0353 32.2188 31.6547L28.8158 26.6475C29.0782 26.4759 29.4111 26.2766 29.8079 26.0651C30.0045 25.9594 30.2159 25.851 30.4422 25.7406V25.7397ZM46.5571 31.5879L49.299 27.5794C46.749 27.763 43.715 28.362 40.7941 29.2076C38.7078 29.8104 36.3896 29.7186 34.243 29.3226C33.7021 29.2223 33.1649 29.103 32.6324 28.9647L34.4127 31.5861C38.2284 32.9445 42.7405 32.9445 46.5571 31.5879V31.5879ZM33.3417 33.1661C37.8065 34.8908 43.1726 34.8908 47.6373 33.1643C49.501 35.1288 51.06 37.3614 52.2625 39.7877C53.5162 42.3451 54.1986 44.9015 54.0874 47.1047C53.9798 49.2309 53.1434 51.0474 51.2332 52.3975C49.2424 53.8042 45.8941 54.8334 40.5354 54.8334C35.1712 54.8334 31.8071 53.8218 29.7977 52.4309C27.8737 51.0975 27.0289 49.306 26.9093 47.2086C26.7841 45.0295 27.4518 42.486 28.7008 39.911C29.8923 37.4556 31.5549 35.092 33.3417 33.1661V33.1661ZM32.2754 26.9405C33.0172 27.1612 33.7924 27.3531 34.5787 27.4987C36.5723 27.8659 38.5715 27.9197 40.2776 27.4254C42.2659 26.8462 44.2881 26.3907 46.3327 26.0614C44.6265 25.5477 42.631 25.1638 40.5354 25.1638C37.341 25.1638 34.3617 26.0549 32.2754 26.9405V26.9405Z" fill="#FAFAFA"/>
</svg>
